<?xml version="1.0" encoding="iso-8859-1"?>
<!-- Generator: Adobe Illustrator 19.0.0, SVG Export Plug-In . SVG Version: 6.00 Build 0)  -->
<svg version="1.1" id="Layer_1" xmlns="http://www.w3.org/2000/svg" xmlns:xlink="http://www.w3.org/1999/xlink" x="0px" y="0px"
	 viewBox="0 0 800 800" style="enable-background:new 0 0 800 800;" xml:space="preserve">
	<g id="Shadows">
		<rect id="Gap_Fill" x="320" y="303.5" transform="matrix(0.7908 0.6121 -0.6121 0.7908 328.4933 -161.1477)" style="stroke:#000000;stroke-miterlimit:10;" width="160" height="193"/>
		<circle id="Button_4_Shadow" style="stroke:#000000;stroke-miterlimit:10;" cx="575" cy="550" r="195"/>
		<circle id="Button_3_Shadow" style="stroke:#000000;stroke-miterlimit:10;" cx="225" cy="600" r="195"/>
		<circle id="Button_2_Shadow" style="stroke:#000000;stroke-miterlimit:10;" cx="575" cy="200" r="195"/>
		<circle id="Button_1_Shadow" style="stroke:#000000;stroke-miterlimit:10;" cx="225" cy="250" r="195"/>
	</g>
	<g id="OFF">
		<circle id="Button_4_OFF" style="fill:#3F5554;stroke:#000000;stroke-miterlimit:10;" cx="575" cy="550" r="150"/>
		<circle id="Button_3_OFF" style="fill:#3F5554;stroke:#000000;stroke-miterlimit:10;" cx="225" cy="600" r="150"/>
		<circle id="Button_2_OFF" style="fill:#3F5554;stroke:#000000;stroke-miterlimit:10;" cx="575" cy="200" r="150"/>
		<circle id="Button_1_OFF" style="fill:#3F5554;stroke:#000000;stroke-miterlimit:10;" cx="225" cy="250" r="150"/>
	</g>
	<g id="STEAM">
		<circle id="Button_4_OFF_1_" style="fill:#126B7F;stroke:#000000;stroke-miterlimit:10;" cx="575" cy="550" r="150"/>
		<circle id="Button_1_OFF_1_" style="fill:#126B7F;stroke:#000000;stroke-miterlimit:10;" cx="225" cy="250" r="150"/>
	</g>
	<g id="XMLID_4_">
		<path id="XMLID_12_" style="fill:#F2F2F2;" d="M625.56,445.16v119.039H647v32.32h-21.44v46.72H586.2v-46.72h-82.56v-28.8
			c4.05-8.32,9.279-17.76,15.68-28.32c6.399-10.56,13.439-21.385,21.12-32.479c7.68-11.09,15.785-22.025,24.319-32.8
			c8.53-10.771,17.065-20.426,25.601-28.96H625.56z M586.2,494.439c-3.84,4.91-7.79,10.135-11.84,15.681
			c-4.056,5.55-8.056,11.359-12,17.439c-3.95,6.08-7.735,12.215-11.36,18.4c-3.63,6.189-6.83,12.27-9.6,18.239h44.8V494.439z"/>
	</g>
	<g id="XMLID_1_">
		<path id="XMLID_6_" style="fill:#F2F2F2;" d="M213.16,310.6V199.88c-5.975,4.27-12.8,8.055-20.48,11.359
			c-7.68,3.311-14.189,5.921-19.52,7.841l-12.8-32.641c5.12-1.92,10.665-4.37,16.64-7.359c5.97-2.985,11.945-6.29,17.92-9.92
			c5.971-3.625,11.625-7.466,16.96-11.521c5.33-4.05,9.92-8.21,13.76-12.479h26.881V310.6h39.359v32.64H171.561V310.6H213.16z"/>
	</g>
</svg>
