<svg id="svg" xmlns="http://www.w3.org/2000/svg" xmlns:xlink="http://www.w3.org/1999/xlink" width="400" height="400" viewBox="0, 0, 400,400"><g id="svgg"><path id="path0" d="M9.221 1.083 C 6.590 2.355,2.581 6.311,1.200 8.998 C -0.461 12.230,-0.311 21.567,1.460 25.208 C 2.154 26.634,3.131 28.790,3.632 30.000 C 4.132 31.210,4.890 32.706,5.315 33.324 C 5.741 33.942,6.494 35.566,6.990 36.933 C 7.486 38.300,8.899 41.484,10.129 44.009 C 11.360 46.534,12.635 49.680,12.962 51.000 C 13.854 54.604,16.100 60.824,17.080 62.404 C 17.557 63.172,18.610 65.150,19.421 66.800 C 21.343 70.713,24.440 74.829,28.201 78.469 C 30.780 80.965,31.531 82.023,33.265 85.600 C 37.353 94.034,38.068 95.415,38.959 96.596 C 39.459 97.258,40.591 99.240,41.477 101.000 C 42.362 102.760,43.370 104.740,43.717 105.400 C 44.063 106.060,44.817 107.770,45.393 109.200 C 46.500 111.951,47.890 114.128,50.627 117.400 C 51.548 118.500,52.708 120.207,53.206 121.193 C 53.704 122.180,54.986 124.383,56.056 126.089 C 57.125 127.795,58.000 129.328,58.001 129.496 C 58.002 129.663,58.611 130.810,59.356 132.045 C 60.219 133.477,60.808 135.071,60.981 136.445 C 61.304 139.018,62.722 144.813,63.170 145.391 C 63.804 146.210,64.800 149.780,64.800 151.234 C 64.800 153.156,61.414 156.044,55.000 159.591 C 53.680 160.322,51.655 161.618,50.500 162.473 C 49.345 163.327,46.555 164.922,44.300 166.016 C 41.401 167.423,39.473 168.691,37.717 170.344 C 36.164 171.806,34.067 173.244,32.117 174.184 C 27.202 176.554,25.472 178.579,23.900 183.800 C 23.569 184.900,23.067 186.565,22.785 187.500 C 22.503 188.435,22.121 189.200,21.936 189.200 C 21.751 189.200,21.600 189.704,21.600 190.320 C 21.600 190.936,21.375 191.665,21.100 191.940 C 20.771 192.269,20.600 193.725,20.600 196.199 C 20.600 198.673,20.771 200.130,21.100 200.459 C 21.375 200.735,21.600 201.317,21.600 201.754 C 21.600 202.487,22.261 204.125,23.939 207.551 C 25.905 211.567,32.011 215.714,39.000 217.781 C 40.980 218.367,44.130 219.453,46.000 220.196 C 47.870 220.939,50.300 221.764,51.400 222.031 C 52.500 222.297,55.290 223.360,57.600 224.392 C 59.910 225.424,62.392 226.503,63.115 226.789 C 63.992 227.136,64.776 227.924,65.467 229.155 C 66.037 230.170,67.129 232.048,67.893 233.328 C 70.653 237.948,70.695 258.181,67.958 264.471 C 67.319 265.940,66.327 268.910,65.752 271.071 C 65.178 273.232,64.299 275.810,63.799 276.800 C 63.299 277.790,62.396 280.040,61.793 281.800 C 61.093 283.841,60.171 285.595,59.248 286.642 C 58.452 287.545,56.866 289.345,55.725 290.642 C 52.793 293.975,51.459 295.905,49.768 299.264 C 48.956 300.876,47.887 302.737,47.394 303.398 C 46.900 304.059,45.921 305.860,45.219 307.400 C 44.517 308.940,43.527 310.650,43.018 311.200 C 41.441 312.905,38.518 317.991,33.789 327.253 C 30.580 333.540,30.587 346.111,33.803 351.205 C 37.739 357.440,52.376 358.448,63.292 353.236 C 65.112 352.367,67.776 351.216,69.214 350.678 C 70.652 350.140,72.722 349.253,73.814 348.706 C 74.906 348.159,77.060 347.307,78.600 346.813 C 81.481 345.888,85.834 343.517,87.600 341.910 C 89.540 340.145,94.056 337.527,101.800 333.677 C 102.900 333.130,105.431 331.633,107.424 330.350 C 109.485 329.023,112.868 327.333,115.268 326.431 C 117.590 325.559,121.651 323.607,124.292 322.094 C 132.922 317.150,133.663 317.111,141.200 321.197 C 143.950 322.688,148.900 325.302,152.200 327.007 C 155.500 328.711,158.920 330.605,159.800 331.215 C 162.063 332.785,173.647 344.960,174.559 346.729 C 180.654 358.542,188.936 363.752,197.904 361.414 C 204.881 359.595,209.869 356.174,212.795 351.200 C 213.637 349.770,214.803 348.153,215.387 347.608 C 216.615 346.459,220.266 341.019,221.727 338.160 C 224.868 332.013,239.562 320.430,243.576 320.937 C 251.545 321.945,254.486 322.585,258.800 324.251 C 267.269 327.523,268.429 328.097,272.123 330.844 C 274.146 332.348,277.060 334.326,278.600 335.239 C 280.140 336.152,283.650 338.384,286.400 340.199 C 289.150 342.013,292.120 343.919,293.000 344.434 C 293.880 344.948,296.106 346.456,297.947 347.785 C 299.788 349.113,302.398 350.904,303.747 351.764 C 305.096 352.624,307.190 353.973,308.400 354.760 C 311.239 356.609,312.588 357.393,314.800 358.480 C 315.790 358.966,317.579 360.362,318.776 361.582 C 319.973 362.802,321.593 364.311,322.376 364.935 C 323.159 365.559,326.435 368.583,329.656 371.655 C 336.145 377.844,338.972 380.163,342.339 382.059 C 343.583 382.759,346.409 384.541,348.620 386.017 C 350.832 387.494,353.352 389.065,354.220 389.508 C 355.089 389.952,357.066 391.374,358.613 392.670 C 363.224 396.533,365.938 397.460,373.824 397.866 C 384.733 398.428,390.976 396.001,392.465 390.618 C 392.711 389.728,393.140 388.279,393.418 387.397 C 394.014 385.511,394.325 367.771,393.839 363.400 C 393.415 359.577,392.248 355.730,390.913 353.749 C 388.846 350.682,385.810 346.047,384.078 343.316 C 383.131 341.822,380.556 338.710,378.357 336.400 C 376.157 334.090,373.208 330.490,371.803 328.400 C 370.398 326.310,368.786 324.060,368.221 323.400 C 366.201 321.039,365.053 319.762,362.644 317.199 C 359.126 313.454,356.578 309.435,355.419 305.800 C 354.466 302.812,353.062 299.915,352.231 299.226 C 351.884 298.938,351.600 298.522,351.600 298.302 C 351.600 297.939,348.179 292.878,347.611 292.400 C 347.480 292.290,346.662 291.300,345.793 290.200 C 344.925 289.100,343.295 287.120,342.172 285.800 C 341.049 284.480,339.426 282.466,338.565 281.325 C 337.704 280.184,335.605 277.623,333.900 275.634 C 332.195 273.646,330.800 271.922,330.800 271.805 C 330.800 271.400,329.047 267.797,328.128 266.314 C 327.622 265.497,326.738 263.654,326.163 262.217 C 325.588 260.781,324.562 258.839,323.883 257.903 C 322.719 256.296,322.636 255.936,322.411 251.506 C 322.266 248.660,321.981 246.621,321.686 246.326 C 321.419 246.059,321.200 245.430,321.200 244.929 C 321.200 244.428,320.660 243.020,320.000 241.800 C 318.407 238.855,318.353 236.313,319.848 234.600 C 320.424 233.940,321.571 232.500,322.397 231.400 C 326.420 226.044,329.372 223.692,333.751 222.356 C 337.991 221.063,341.497 219.442,346.218 216.592 C 347.767 215.657,350.545 214.133,352.391 213.205 C 360.658 209.048,364.220 203.123,364.174 193.600 C 364.119 181.956,361.543 179.312,339.600 168.374 C 332.601 164.885,331.451 164.165,328.400 161.363 C 324.082 157.397,318.806 151.921,318.800 151.400 C 318.797 151.180,318.563 150.550,318.279 150.000 C 316.005 145.596,315.667 142.480,317.216 140.200 C 317.365 139.980,317.818 138.900,318.221 137.800 C 318.624 136.700,319.354 135.260,319.842 134.600 C 320.768 133.349,322.800 129.009,322.800 128.282 C 322.800 128.051,323.052 127.579,323.360 127.231 C 324.288 126.186,325.848 123.128,326.552 120.977 C 327.292 118.712,331.366 110.559,332.265 109.543 C 332.584 109.182,333.429 107.544,334.143 105.903 C 334.856 104.263,336.005 102.038,336.696 100.960 C 337.387 99.882,338.353 97.920,338.843 96.600 C 339.332 95.280,340.179 93.593,340.724 92.851 C 341.269 92.109,342.332 90.039,343.086 88.251 C 343.840 86.463,344.684 84.730,344.961 84.400 C 345.538 83.713,347.341 79.888,347.790 78.400 C 347.956 77.850,348.413 77.040,348.805 76.600 C 349.475 75.847,352.000 70.304,352.000 69.585 C 352.000 69.402,352.552 68.365,353.228 67.278 C 357.105 61.040,357.437 44.048,353.802 37.800 C 349.479 30.369,339.457 28.510,328.600 33.123 C 327.060 33.778,323.692 35.212,321.115 36.311 C 318.538 37.409,315.298 39.110,313.915 40.090 C 312.532 41.070,310.050 42.652,308.400 43.607 C 306.750 44.561,304.410 46.013,303.200 46.834 C 301.990 47.655,299.637 48.972,297.971 49.761 C 296.241 50.580,293.895 52.142,292.503 53.402 C 290.304 55.392,288.704 56.357,283.867 58.609 C 283.024 59.001,280.939 60.600,279.233 62.161 C 277.387 63.851,274.877 65.647,273.030 66.600 C 271.324 67.480,268.909 69.049,267.664 70.088 C 262.732 74.200,257.390 75.568,251.525 74.220 C 250.136 73.900,247.290 73.465,245.200 73.252 C 243.110 73.039,240.933 72.685,240.363 72.466 C 239.083 71.974,226.800 59.833,226.800 59.060 C 226.800 56.522,222.900 50.944,218.229 46.800 C 215.689 44.547,213.704 42.351,212.342 40.291 C 202.979 26.124,182.165 27.878,177.818 43.200 C 177.662 43.750,176.941 45.370,176.216 46.800 C 175.492 48.230,174.585 50.390,174.201 51.600 C 173.050 55.230,171.432 57.643,166.660 62.847 C 157.126 73.243,154.296 74.695,150.289 71.247 C 148.356 69.584,145.724 67.895,142.600 66.310 C 138.704 64.335,131.752 60.068,128.948 57.932 C 126.299 55.914,123.155 53.844,120.200 52.174 C 119.100 51.552,117.480 50.482,116.600 49.795 C 114.759 48.357,111.843 46.561,109.087 45.168 C 108.035 44.635,106.045 43.357,104.665 42.327 C 100.907 39.521,93.464 34.993,89.400 33.042 C 87.420 32.091,83.820 30.368,81.400 29.212 C 78.980 28.057,76.010 26.447,74.800 25.634 C 70.528 22.764,67.767 21.270,64.794 20.223 C 63.141 19.640,61.131 18.767,60.327 18.282 C 55.761 15.527,51.901 13.014,49.661 11.338 C 46.636 9.073,39.031 5.205,31.670 2.186 L 26.340 -0.000 18.870 0.015 C 11.634 0.029,11.332 0.062,9.221 1.083 M30.971 21.637 C 33.187 22.318,35.270 23.032,35.600 23.224 C 35.930 23.416,37.190 24.154,38.400 24.864 C 39.610 25.573,41.680 27.168,43.000 28.407 C 46.773 31.950,50.832 34.192,54.834 34.942 C 56.396 35.236,63.610 39.383,66.378 41.580 C 68.723 43.440,88.283 53.511,92.483 55.020 C 93.299 55.313,95.134 56.328,96.561 57.276 C 97.988 58.224,100.831 60.080,102.878 61.400 C 104.925 62.720,107.680 64.794,109.000 66.009 C 110.320 67.224,112.030 68.693,112.800 69.273 C 115.195 71.076,126.973 78.270,130.128 79.857 C 131.268 80.430,134.720 82.445,137.800 84.335 C 148.100 90.656,154.574 92.912,158.637 91.598 C 164.432 89.723,174.181 81.854,179.291 74.927 C 180.011 73.951,181.365 72.229,182.300 71.100 C 183.235 69.971,184.000 68.881,184.000 68.677 C 184.000 68.474,184.632 67.446,185.404 66.394 C 186.177 65.342,187.452 63.068,188.239 61.341 C 193.075 50.723,196.030 49.096,201.026 54.300 C 209.122 62.733,210.575 64.530,211.550 67.317 C 213.376 72.539,220.438 80.589,227.336 85.312 C 230.779 87.670,231.571 87.888,237.800 88.187 C 242.879 88.432,243.079 88.477,246.388 90.113 C 251.242 92.513,259.875 92.389,263.768 89.863 C 264.561 89.349,267.901 88.211,271.445 87.248 C 272.925 86.846,276.575 84.450,279.800 81.765 C 280.460 81.215,282.080 80.211,283.400 79.533 C 285.724 78.339,286.876 77.468,291.307 73.548 C 292.458 72.530,294.504 71.143,295.854 70.466 C 297.204 69.789,299.120 68.687,300.112 68.017 C 301.104 67.348,302.019 66.800,302.146 66.800 C 302.272 66.800,303.596 66.021,305.088 65.070 C 306.579 64.118,308.430 63.095,309.200 62.796 C 309.970 62.497,311.590 61.596,312.800 60.794 C 318.196 57.215,331.949 51.200,334.738 51.200 C 340.861 51.200,338.780 59.865,328.013 79.200 C 323.243 87.765,317.499 98.842,315.878 102.600 C 315.024 104.580,313.892 107.150,313.363 108.312 C 312.833 109.473,312.400 110.543,312.400 110.689 C 312.400 110.834,311.213 113.394,309.761 116.377 C 307.212 121.616,305.480 125.220,302.060 132.400 C 297.630 141.701,299.298 155.337,305.887 163.687 C 309.432 168.180,310.485 169.196,313.548 171.083 C 315.226 172.117,318.310 174.258,320.400 175.841 C 322.490 177.424,324.950 179.093,325.867 179.551 C 326.784 180.008,328.314 180.901,329.267 181.533 C 330.220 182.166,332.304 183.362,333.897 184.190 C 340.163 187.447,344.047 192.454,343.213 196.200 C 342.455 199.600,333.925 205.395,326.600 207.484 C 320.944 209.098,316.369 212.063,310.379 218.000 C 303.848 224.472,302.612 227.122,303.006 233.800 C 303.203 237.146,303.114 238.853,302.633 240.925 C 300.846 248.622,304.817 260.386,314.742 276.800 C 315.873 278.670,316.799 280.327,316.799 280.482 C 316.802 281.494,323.575 290.877,329.662 298.303 C 332.756 302.077,334.678 305.319,338.581 313.348 C 342.595 321.605,345.651 326.269,350.015 330.800 C 355.326 336.314,359.625 341.727,363.676 348.000 C 364.883 349.870,367.437 353.764,369.352 356.654 C 377.281 368.623,378.382 378.364,371.701 377.448 C 370.680 377.308,369.543 376.970,369.175 376.697 C 365.052 373.636,359.662 370.122,353.000 366.151 C 348.426 363.425,334.452 354.039,332.837 352.608 C 332.087 351.943,330.492 350.500,329.292 349.400 C 328.092 348.300,326.178 346.860,325.040 346.200 C 323.902 345.540,322.347 344.521,321.585 343.936 C 320.823 343.351,319.356 342.426,318.325 341.881 C 317.294 341.336,315.584 340.176,314.525 339.304 C 312.742 337.835,309.896 335.864,304.400 332.292 C 303.190 331.505,300.670 329.775,298.800 328.448 C 296.930 327.120,294.589 325.605,293.597 325.082 C 291.573 324.014,281.565 317.569,278.800 315.553 C 275.694 313.288,269.283 310.158,260.995 306.860 C 243.510 299.901,237.050 300.148,228.260 308.111 C 226.247 309.935,223.610 312.163,222.400 313.062 C 218.576 315.904,214.788 319.646,212.456 322.886 C 208.587 328.261,206.454 331.300,204.515 334.200 C 197.341 344.932,193.808 345.484,187.875 336.800 C 186.738 335.135,183.692 331.429,181.800 329.407 C 181.360 328.937,179.682 326.918,178.070 324.921 C 174.396 320.366,170.664 317.051,167.025 315.106 C 161.404 312.103,152.251 307.600,151.766 307.600 C 151.493 307.600,149.679 306.342,147.735 304.805 C 142.446 300.624,141.411 300.198,136.574 300.210 L 132.547 300.221 127.974 302.461 C 125.458 303.693,122.770 304.940,122.000 305.231 C 121.230 305.522,119.737 306.265,118.682 306.880 C 117.628 307.496,116.638 307.999,116.482 307.998 C 116.327 307.996,114.310 308.889,112.000 309.981 C 109.690 311.074,106.361 312.527,104.601 313.211 C 102.842 313.895,101.132 314.686,100.801 314.969 C 100.143 315.531,98.030 316.691,87.800 322.101 C 84.060 324.079,80.100 326.366,79.000 327.183 C 75.896 329.489,70.894 332.217,67.668 333.364 C 66.055 333.937,63.801 334.833,62.660 335.356 C 51.627 340.402,48.822 335.316,55.891 323.085 C 57.190 320.838,58.583 318.100,58.988 317.000 C 59.393 315.900,60.210 314.280,60.805 313.400 C 61.400 312.520,62.267 310.932,62.733 309.871 C 63.199 308.810,64.800 306.220,66.290 304.116 C 72.024 296.018,73.767 293.299,75.083 290.400 C 75.832 288.750,76.971 286.320,77.614 285.000 C 84.081 271.731,87.200 263.655,88.184 257.631 C 90.407 244.020,88.523 231.795,82.970 223.800 C 82.359 222.920,81.189 221.201,80.370 219.981 C 77.017 214.981,68.129 209.246,59.000 206.189 C 42.336 200.610,37.337 194.183,45.129 188.353 C 46.378 187.418,47.490 186.546,47.600 186.414 C 48.210 185.683,54.520 181.155,55.930 180.436 C 56.842 179.970,58.437 179.052,59.473 178.395 C 60.509 177.738,61.636 177.200,61.978 177.200 C 65.368 177.198,78.463 166.860,80.056 162.927 C 80.734 161.253,81.212 148.839,80.769 144.400 C 80.126 137.965,77.126 129.166,73.404 122.800 C 72.439 121.150,71.451 119.273,71.208 118.630 C 70.665 117.192,66.354 109.989,62.801 104.584 C 61.349 102.375,59.738 99.495,59.221 98.184 C 57.396 93.559,54.684 88.539,51.018 83.000 C 48.979 79.920,47.082 76.680,46.802 75.800 C 45.906 72.983,43.341 69.033,40.500 66.094 C 38.179 63.693,35.620 59.096,33.436 53.400 C 32.171 50.100,30.127 45.510,28.896 43.200 C 18.719 24.113,19.302 18.054,30.971 21.637 M188.200 94.406 C 183.800 95.014,176.870 95.715,172.800 95.963 C 156.093 96.983,154.807 97.300,145.743 102.615 C 123.715 115.532,109.134 129.933,100.801 147.000 C 98.653 151.400,95.639 156.890,94.105 159.200 C 88.190 168.102,88.085 168.879,88.741 199.000 C 89.376 228.223,89.799 229.740,102.890 249.800 C 114.715 267.920,125.612 280.048,135.185 285.742 C 144.084 291.035,162.676 295.660,165.578 293.301 L 166.556 292.507 165.297 289.153 C 163.800 285.163,163.748 284.892,163.202 278.118 C 162.322 267.192,160.422 262.745,149.479 246.000 C 140.141 231.710,135.295 224.500,130.794 218.200 C 123.407 207.862,122.056 205.319,119.067 196.144 C 114.463 182.007,115.029 177.661,123.096 165.200 C 133.885 148.536,141.853 141.521,156.697 135.623 C 160.686 134.037,161.690 132.998,164.366 127.677 C 174.759 107.015,191.331 94.136,195.037 103.842 C 197.168 109.421,186.998 125.169,176.000 133.322 C 170.236 137.595,169.846 139.440,174.101 142.308 C 181.890 147.559,185.640 146.822,192.969 138.600 C 198.560 132.328,209.881 120.947,211.979 119.489 C 219.085 114.551,231.207 125.531,226.125 132.301 C 224.900 133.934,207.984 150.536,203.094 154.907 C 198.973 158.589,198.400 159.862,198.400 165.339 C 198.400 175.731,193.687 177.069,177.187 171.362 C 163.164 166.512,161.103 166.754,153.799 174.108 C 147.781 180.167,146.629 183.428,149.570 186.080 C 151.612 187.921,154.158 188.396,165.200 188.992 C 183.921 190.004,193.692 192.660,205.836 200.039 C 217.773 207.292,216.917 207.629,237.400 187.591 C 250.055 175.211,256.699 170.486,260.211 171.367 C 266.388 172.917,267.314 189.361,261.551 195.159 C 255.316 201.432,243.168 209.050,233.087 213.009 C 226.642 215.540,224.904 217.674,225.297 222.576 C 226.033 231.739,233.372 233.474,243.192 226.805 C 248.834 222.974,252.289 223.537,253.629 228.506 C 255.037 233.723,252.858 237.858,243.781 247.200 C 234.109 257.155,232.445 260.969,232.414 273.265 C 232.377 287.904,235.560 291.511,244.338 286.777 C 257.729 279.556,267.121 270.885,277.515 256.142 C 279.089 253.910,281.383 250.760,282.612 249.142 C 287.608 242.567,291.923 229.453,297.268 204.600 C 298.856 197.218,297.839 186.037,294.739 176.800 C 293.668 173.610,292.063 168.390,291.173 165.200 C 287.326 151.422,277.074 135.221,262.600 120.048 C 253.819 110.842,239.904 103.064,224.600 98.808 C 221.300 97.890,216.350 96.439,213.600 95.584 C 204.480 92.749,201.270 92.600,188.200 94.406 M243.013 143.780 C 248.332 146.002,250.215 150.412,247.604 154.530 C 245.923 157.180,225.099 177.986,222.296 179.815 C 218.038 182.593,214.677 181.974,211.547 177.834 C 207.396 172.341,208.343 169.888,218.000 161.130 C 220.970 158.437,225.920 153.764,229.000 150.748 C 236.616 143.288,238.999 142.103,243.013 143.780 " stroke="none" fill="#170e0d" fill-rule="evenodd"></path><path id="path1" d="M24.131 20.983 C 19.928 22.812,21.208 28.782,28.896 43.200 C 30.127 45.510,32.171 50.100,33.436 53.400 C 35.620 59.096,38.179 63.693,40.500 66.094 C 43.341 69.033,45.906 72.983,46.802 75.800 C 47.082 76.680,48.979 79.920,51.018 83.000 C 54.684 88.539,57.396 93.559,59.221 98.184 C 59.738 99.495,61.349 102.375,62.801 104.584 C 66.354 109.989,70.665 117.192,71.208 118.630 C 71.451 119.273,72.439 121.150,73.404 122.800 C 77.126 129.166,80.126 137.965,80.769 144.400 C 81.212 148.839,80.734 161.253,80.056 162.927 C 78.463 166.860,65.368 177.198,61.978 177.200 C 61.636 177.200,60.509 177.738,59.473 178.395 C 58.437 179.052,56.842 179.970,55.930 180.436 C 54.520 181.155,48.210 185.683,47.600 186.414 C 47.490 186.546,46.378 187.418,45.129 188.353 C 37.337 194.183,42.336 200.610,59.000 206.189 C 68.129 209.246,77.017 214.981,80.370 219.981 C 81.189 221.201,82.359 222.920,82.970 223.800 C 88.523 231.795,90.407 244.020,88.184 257.631 C 87.200 263.655,84.081 271.731,77.614 285.000 C 76.971 286.320,75.832 288.750,75.083 290.400 C 73.767 293.299,72.024 296.018,66.290 304.116 C 64.800 306.220,63.199 308.810,62.733 309.871 C 62.267 310.932,61.400 312.520,60.805 313.400 C 60.210 314.280,59.393 315.900,58.988 317.000 C 58.583 318.100,57.190 320.838,55.891 323.085 C 48.822 335.316,51.627 340.402,62.660 335.356 C 63.801 334.833,66.055 333.937,67.668 333.364 C 70.894 332.217,75.896 329.489,79.000 327.183 C 80.100 326.366,84.060 324.079,87.800 322.101 C 98.030 316.691,100.143 315.531,100.801 314.969 C 101.132 314.686,102.842 313.895,104.601 313.211 C 106.361 312.527,109.690 311.074,112.000 309.981 C 114.310 308.889,116.327 307.996,116.482 307.998 C 116.638 307.999,117.628 307.496,118.682 306.880 C 119.737 306.265,121.230 305.522,122.000 305.231 C 122.770 304.940,125.458 303.693,127.974 302.461 L 132.547 300.221 136.574 300.210 C 141.411 300.198,142.446 300.624,147.735 304.805 C 149.679 306.342,151.493 307.600,151.766 307.600 C 152.251 307.600,161.404 312.103,167.025 315.106 C 170.664 317.051,174.396 320.366,178.070 324.921 C 179.682 326.918,181.360 328.937,181.800 329.407 C 183.692 331.429,186.738 335.135,187.875 336.800 C 193.808 345.484,197.341 344.932,204.515 334.200 C 206.454 331.300,208.587 328.261,212.456 322.886 C 214.788 319.646,218.576 315.904,222.400 313.062 C 223.610 312.163,226.247 309.935,228.260 308.111 C 237.050 300.148,243.510 299.901,260.995 306.860 C 269.283 310.158,275.694 313.288,278.800 315.553 C 281.565 317.569,291.573 324.014,293.597 325.082 C 294.589 325.605,296.930 327.120,298.800 328.448 C 300.670 329.775,303.190 331.505,304.400 332.292 C 309.896 335.864,312.742 337.835,314.525 339.304 C 315.584 340.176,317.294 341.336,318.325 341.881 C 319.356 342.426,320.823 343.351,321.585 343.936 C 322.347 344.521,323.902 345.540,325.040 346.200 C 326.178 346.860,328.092 348.300,329.292 349.400 C 330.492 350.500,332.087 351.943,332.837 352.608 C 334.452 354.039,348.426 363.425,353.000 366.151 C 359.662 370.122,365.052 373.636,369.175 376.697 C 369.543 376.970,370.680 377.308,371.701 377.448 C 378.382 378.364,377.281 368.623,369.352 356.654 C 367.437 353.764,364.883 349.870,363.676 348.000 C 359.625 341.727,355.326 336.314,350.015 330.800 C 345.651 326.269,342.595 321.605,338.581 313.348 C 334.678 305.319,332.756 302.077,329.662 298.303 C 323.575 290.877,316.802 281.494,316.799 280.482 C 316.799 280.327,315.873 278.670,314.742 276.800 C 304.817 260.386,300.846 248.622,302.633 240.925 C 303.114 238.853,303.203 237.146,303.006 233.800 C 302.612 227.122,303.848 224.472,310.379 218.000 C 316.369 212.063,320.944 209.098,326.600 207.484 C 333.925 205.395,342.455 199.600,343.213 196.200 C 344.047 192.454,340.163 187.447,333.897 184.190 C 332.304 183.362,330.220 182.166,329.267 181.533 C 328.314 180.901,326.784 180.008,325.867 179.551 C 324.950 179.093,322.490 177.424,320.400 175.841 C 318.310 174.258,315.226 172.117,313.548 171.083 C 307.306 167.238,301.924 159.099,300.179 150.868 C 298.822 144.465,299.505 137.764,302.060 132.400 C 305.480 125.220,307.212 121.616,309.761 116.377 C 311.213 113.394,312.400 110.834,312.400 110.689 C 312.400 110.543,312.833 109.473,313.363 108.312 C 313.892 107.150,315.024 104.580,315.878 102.600 C 317.499 98.842,323.243 87.765,328.013 79.200 C 338.780 59.865,340.861 51.200,334.738 51.200 C 331.949 51.200,318.196 57.215,312.800 60.794 C 311.590 61.596,309.970 62.497,309.200 62.796 C 308.430 63.095,306.579 64.118,305.088 65.070 C 303.596 66.021,302.272 66.800,302.146 66.800 C 302.019 66.800,301.104 67.348,300.112 68.017 C 299.120 68.687,297.204 69.789,295.854 70.466 C 294.504 71.143,292.458 72.530,291.307 73.548 C 286.876 77.468,285.724 78.339,283.400 79.533 C 282.080 80.211,280.460 81.215,279.800 81.765 C 276.575 84.450,272.925 86.846,271.445 87.248 C 267.901 88.211,264.561 89.349,263.768 89.863 C 259.875 92.389,251.242 92.513,246.388 90.113 C 243.079 88.477,242.879 88.432,237.800 88.187 C 231.571 87.888,230.779 87.670,227.336 85.312 C 220.438 80.589,213.376 72.539,211.550 67.317 C 210.575 64.530,209.122 62.733,201.026 54.300 C 196.030 49.096,193.075 50.723,188.239 61.341 C 187.452 63.068,186.177 65.342,185.404 66.394 C 184.632 67.446,184.000 68.474,184.000 68.677 C 184.000 68.881,183.235 69.971,182.300 71.100 C 181.365 72.229,180.011 73.951,179.291 74.927 C 174.181 81.854,164.432 89.723,158.637 91.598 C 154.574 92.912,148.100 90.656,137.800 84.335 C 134.720 82.445,131.268 80.430,130.128 79.857 C 126.973 78.270,115.195 71.076,112.800 69.273 C 112.030 68.693,110.320 67.224,109.000 66.009 C 107.680 64.794,104.925 62.720,102.878 61.400 C 100.831 60.080,97.988 58.224,96.561 57.276 C 95.134 56.328,93.299 55.313,92.483 55.020 C 88.283 53.511,68.723 43.440,66.378 41.580 C 63.610 39.383,56.396 35.236,54.834 34.942 C 50.832 34.192,46.773 31.950,43.000 28.407 C 41.680 27.168,39.610 25.573,38.400 24.864 C 37.190 24.154,35.930 23.416,35.600 23.224 C 32.617 21.486,25.964 20.186,24.131 20.983 M206.800 93.625 C 207.790 93.848,210.850 94.729,213.600 95.584 C 216.350 96.439,221.300 97.890,224.600 98.808 C 239.904 103.064,253.819 110.842,262.600 120.048 C 277.074 135.221,287.326 151.422,291.173 165.200 C 292.063 168.390,293.668 173.610,294.739 176.800 C 297.839 186.037,298.856 197.218,297.268 204.600 C 291.923 229.453,287.608 242.567,282.612 249.142 C 281.383 250.760,279.089 253.910,277.515 256.142 C 267.121 270.885,257.729 279.556,244.338 286.777 C 235.560 291.511,232.377 287.904,232.414 273.265 C 232.445 260.969,234.109 257.155,243.781 247.200 C 252.858 237.858,255.037 233.723,253.629 228.506 C 252.289 223.537,248.834 222.974,243.192 226.805 C 233.372 233.474,226.033 231.739,225.297 222.576 C 224.904 217.674,226.642 215.540,233.087 213.009 C 243.168 209.050,255.316 201.432,261.551 195.159 C 267.314 189.361,266.388 172.917,260.211 171.367 C 256.699 170.486,250.055 175.211,237.400 187.591 C 216.917 207.629,217.773 207.292,205.836 200.039 C 193.692 192.660,183.921 190.004,165.200 188.992 C 154.158 188.396,151.612 187.921,149.570 186.080 C 146.629 183.428,147.781 180.167,153.799 174.108 C 161.103 166.754,163.164 166.512,177.187 171.362 C 193.687 177.069,198.400 175.731,198.400 165.339 C 198.400 159.862,198.973 158.589,203.094 154.907 C 215.462 143.854,227.108 131.675,227.476 129.410 C 228.201 124.943,220.716 117.676,215.809 118.083 C 212.508 118.356,205.009 125.092,192.969 138.600 C 185.640 146.822,181.890 147.559,174.101 142.308 C 169.846 139.440,170.236 137.595,176.000 133.322 C 186.998 125.169,197.168 109.421,195.037 103.842 C 191.331 94.136,174.759 107.015,164.366 127.677 C 161.690 132.998,160.686 134.037,156.697 135.623 C 141.853 141.521,133.885 148.536,123.096 165.200 C 115.029 177.661,114.463 182.007,119.067 196.144 C 122.056 205.319,123.407 207.862,130.794 218.200 C 135.295 224.500,140.141 231.710,149.479 246.000 C 160.422 262.745,162.322 267.192,163.202 278.118 C 163.748 284.892,163.800 285.163,165.297 289.153 L 166.556 292.507 165.578 293.301 C 162.676 295.660,144.084 291.035,135.185 285.742 C 125.612 280.048,114.715 267.920,102.890 249.800 C 89.799 229.740,89.376 228.223,88.741 199.000 C 88.085 168.879,88.190 168.102,94.105 159.200 C 95.639 156.890,98.653 151.400,100.801 147.000 C 109.134 129.933,123.715 115.532,145.743 102.615 C 154.807 97.300,156.093 96.983,172.800 95.963 C 176.870 95.715,183.800 95.014,188.200 94.406 C 196.603 93.245,203.774 92.944,206.800 93.625 M236.400 144.236 C 235.410 144.800,232.080 147.731,229.000 150.748 C 225.920 153.764,220.970 158.437,218.000 161.130 C 208.343 169.888,207.396 172.341,211.547 177.834 C 214.677 181.974,218.038 182.593,222.296 179.815 C 225.099 177.986,245.923 157.180,247.604 154.530 C 251.673 148.113,243.221 140.347,236.400 144.236 " stroke="none" fill="#ed3e2a" fill-rule="evenodd"></path></g></svg>