<?xml version="1.0" encoding="iso-8859-1"?>
<!-- Generator: Adobe Illustrator 19.0.0, SVG Export Plug-In . SVG Version: 6.00 Build 0)  -->
<svg version="1.1" id="Layer_1" xmlns="http://www.w3.org/2000/svg" xmlns:xlink="http://www.w3.org/1999/xlink" x="0px" y="0px"
	 viewBox="0 0 800 800" style="enable-background:new 0 0 800 800;" xml:space="preserve">
<g id="Shadows">
	<rect id="Gap_Fill" x="320" y="303.5" transform="matrix(0.7908 0.6121 -0.6121 0.7908 328.4933 -161.1477)" style="stroke:#000000;stroke-miterlimit:10;" width="160" height="193"/>
	<circle id="Button_4_Shadow" style="stroke:#000000;stroke-miterlimit:10;" cx="575" cy="550" r="195"/>
	<circle id="Button_3_Shadow" style="stroke:#000000;stroke-miterlimit:10;" cx="225" cy="600" r="195"/>
	<circle id="Button_2_Shadow" style="stroke:#000000;stroke-miterlimit:10;" cx="575" cy="200" r="195"/>
	<circle id="Button_1_Shadow" style="stroke:#000000;stroke-miterlimit:10;" cx="225" cy="250" r="195"/>
</g>
<g id="OFF">
	<circle id="Button_4_OFF" style="fill:#3F5554;stroke:#000000;stroke-miterlimit:10;" cx="575" cy="550" r="150"/>
	<circle id="Button_3_OFF" style="fill:#3F5554;stroke:#000000;stroke-miterlimit:10;" cx="225" cy="600" r="150"/>
	<circle id="Button_2_OFF" style="fill:#3F5554;stroke:#000000;stroke-miterlimit:10;" cx="575" cy="200" r="150"/>
	<circle id="Button_1_OFF" style="fill:#3F5554;stroke:#000000;stroke-miterlimit:10;" cx="225" cy="250" r="150"/>
</g>
<g id="STEAM">
	<circle id="Button_2_OFF_1_" style="fill:#126B7F;stroke:#000000;stroke-miterlimit:10;" cx="575" cy="200" r="150"/>
</g>
<g id="XMLID_3_">
	<path id="XMLID_8_" style="fill:#F2F2F2;" d="M633.881,147.32c0,6.83-1.281,13.39-3.84,19.68c-2.561,6.295-5.976,12.43-10.24,18.4
		c-4.271,5.975-9.07,11.735-14.4,17.28c-5.335,5.55-10.775,10.88-16.32,16c-2.775,2.56-5.975,5.6-9.6,9.12
		c-3.63,3.52-7.04,7.15-10.24,10.88c-3.199,3.735-5.92,7.52-8.16,11.36c-2.24,3.84-3.359,7.36-3.359,10.56h85.119v32.64H513.561
		c-0.641-2.13-0.91-4.8-0.801-8c0.105-3.2,0.16-5.44,0.16-6.72c0-10.665,1.971-20.479,5.92-29.44
		c3.945-8.96,8.961-17.225,15.041-24.8c6.08-7.57,12.584-14.61,19.52-21.12c6.93-6.505,13.439-12.745,19.52-18.72
		c6.08-5.97,11.09-11.73,15.041-17.28c3.944-5.545,5.92-11.2,5.92-16.96c0-8.105-2.455-14.345-7.36-18.72
		c-4.91-4.37-11.095-6.56-18.56-6.56c-6.19,0-12.695,1.495-19.521,4.48c-6.83,2.99-13.55,8-20.16,15.04l-19.521-27.52
		c8.531-8.96,18.4-15.57,29.601-19.84c11.2-4.265,22.345-6.4,33.44-6.4c8.104,0,15.89,1.175,23.359,3.52
		c7.465,2.35,14.08,5.87,19.84,10.56c5.76,4.695,10.346,10.615,13.76,17.76C632.17,129.67,633.881,137.935,633.881,147.32z"/>
</g>
</svg>
